<?xml version="1.0" encoding="utf-8"?>
<!-- Generator: Adobe Illustrator 26.3.1, SVG Export Plug-In . SVG Version: 6.00 Build 0)  -->
<svg version="1.1" id="Layer_1" xmlns="http://www.w3.org/2000/svg" xmlns:xlink="http://www.w3.org/1999/xlink" x="0px" y="0px"
	 viewBox="0 0 200 200" style="enable-background:new 0 0 200 200;" xml:space="preserve">
<style type="text/css">
	.st0{fill:#EC008C;}
</style>
<g>
	<path class="st0" d="M199.5,99.12v96.41c0,2.2-1.78,3.98-3.98,3.98h0c-2.2,0-3.98-1.78-3.98-3.98v-47.15c0-1.6-1.67-2.65-3.11-1.96
		l0,0"/>
	<g>
		<path class="st0" d="M100,0.5C45.09,0.5,0.5,45.09,0.5,100s44.59,99.5,99.5,99.5s99.5-44.59,99.5-99.5S155,0.5,100,0.5z
			 M95.95,14.23c1.29-0.09,2.67-0.09,4.24-0.09s2.86,0,4.24,0.09h0.18h0.18l0,0c1.47,0.09,2.86,0.18,4.24,0.28
			c1.38,0.09,2.76,0.28,4.05,0.46c0.92,0.18,1.75,0.28,2.58,0.46h0.09h0.09c0.46,0.09,1.01,0.18,1.57,0.28
			c0.74,0.18,1.57,0.37,2.49,0.55l0.83,0.18l0.83,0.18l0.28,0.09c0.28,0.09,0.55,0.18,0.83,0.18h0.09h0.09
			c0.46,0.09,0.92,0.28,1.47,0.37c1.47,0.46,2.86,0.92,4.33,1.38c0.37,0.18,0.83,0.28,1.29,0.46c3.13,1.2,6.17,2.49,9.03,3.96
			c0.55,0.28,1.2,0.55,1.75,0.92c1.66,0.92,3.41,1.84,4.97,2.95l0,0l0,0c0.55,0.28,1.01,0.64,1.47,0.92
			c2.21,1.47,4.33,3.04,6.54,4.79c0.46,0.37,0.92,0.74,1.29,1.11s0.74,0.64,1.11,1.01l0.09,0.09l0,0c0.46,0.37,0.92,0.83,1.29,1.2
			c2.12,1.93,4.24,4.05,6.17,6.17c0.37,0.46,0.83,0.92,1.2,1.38l0.09,0.09l0.09,0.09c0.28,0.37,0.64,0.74,0.92,1.11
			c0.37,0.46,0.74,0.83,1.11,1.29c2.4,2.95,4.51,6.08,6.45,9.12c0.37,0.64,0.74,1.2,1.11,1.84v0.09v0.09
			c0.28,0.46,0.55,1.01,0.92,1.66l0.09,0.18l0.92,1.75c0.28,0.64,0.55,1.2,0.83,1.66v0.09v0.09c0.18,0.46,0.37,0.83,0.64,1.29v0.09
			l0,0c1.75,3.78,3.22,7.74,4.33,11.61c0.18,0.46,0.28,1.01,0.37,1.47l0,0l0,0c0.28,0.83,0.46,1.66,0.64,2.49v0.09v0.09
			c0.09,0.46,0.18,0.83,0.28,1.29c0.46,1.84,0.74,3.78,1.11,5.71c0.09,0.92,0.28,1.75,0.37,2.67h-75.18V67.48
			c0-8.02-1.75-15.66-5.07-22.76c-1.38-2.95-3.13-5.8-5.07-8.57c-6.17-8.38-14.74-14.74-24.88-18.43
			C81.85,15.79,88.76,14.6,95.95,14.23z M104.33,185.86c-1.29,0.09-2.67,0.09-4.24,0.09c-1.47,0-2.86,0-4.24-0.09h-0.18h-0.18l0,0
			c-1.47-0.09-2.86-0.18-4.24-0.28c-1.38-0.09-2.76-0.28-4.05-0.55c-0.92-0.18-1.75-0.28-2.49-0.46h-0.18h-0.18
			c-0.46-0.09-1.01-0.18-1.57-0.28c-1.93-0.37-3.59-0.83-5.16-1.2h-0.09h-0.09c-0.46-0.09-0.92-0.28-1.38-0.37h-0.09h-0.09
			c-1.01-0.28-2.12-0.64-3.32-1.01c-0.64-0.18-1.29-0.46-2.03-0.74c-1.93-0.74-3.87-1.47-5.8-2.4c-1.38-0.64-2.58-1.2-3.78-1.84
			c-0.55-0.28-1.11-0.55-1.66-0.92l-0.09-0.09h-0.09c-0.64-0.28-1.2-0.64-1.75-1.01c-1.11-0.64-2.03-1.2-2.86-1.66
			c-3.32-2.12-6.54-4.42-9.49-6.91c-0.92-0.83-1.84-1.57-2.67-2.4l0,0l0,0c-1.01-0.92-2.03-1.84-2.95-2.76l-0.09-0.09l-0.09-0.09
			c-0.28-0.28-0.55-0.55-0.74-0.74v-0.09l-0.55-0.64c-0.46-0.46-0.92-0.92-1.38-1.47l0,0l0,0c-0.46-0.55-0.92-1.01-1.29-1.47l0,0
			l0,0c-0.46-0.55-0.92-1.01-1.38-1.57c-0.46-0.55-0.83-1.01-1.29-1.57l0,0l0,0c-0.46-0.55-0.83-1.11-1.2-1.57l0,0l0,0
			c-0.37-0.55-0.83-1.11-1.2-1.66v-0.09v-0.09c-0.28-0.37-0.55-0.83-0.92-1.2l-0.09-0.09c-0.28-0.37-0.55-0.83-0.83-1.2l-1.01-1.57
			c-1.01-1.66-2.03-3.32-2.95-4.97c-0.28-0.55-0.64-1.11-0.92-1.75c-1.2-2.4-2.3-4.88-3.32-7.28c-0.37-1.01-0.83-2.12-1.2-3.13
			c-0.55-1.66-1.11-3.32-1.57-5.07v-0.09v-0.09c-0.18-0.55-0.28-1.11-0.46-1.66v-0.09v-0.09c-0.09-0.37-0.28-0.83-0.28-1.2v-0.18
			v-0.18c-0.09-0.46-0.18-0.83-0.28-1.29c-0.46-1.84-0.74-3.78-1.11-5.71c-0.18-1.29-0.37-2.67-0.55-4.15
			c-0.09-1.29-0.28-2.67-0.28-4.15l0,0v-0.28v-0.18c-0.09-1.29-0.09-2.67-0.09-4.24c0-1.11,0-2.21,0.09-3.22l0,0v-0.37
			c0-0.18,0-0.46,0-0.64v-0.18v-0.18l0,0c0-0.74,0.09-1.38,0.18-2.12v-0.09v-0.09c0-0.55,0.09-1.11,0.09-1.66v-0.28l0,0l0,0v-0.28
			c0.09-1.38,0.37-2.86,0.55-3.96c0.09-0.64,0.18-1.29,0.37-1.93l0,0l0,0c0.28-1.66,0.55-2.95,0.83-4.24
			c0.74-3.32,1.75-6.73,3.04-10.13l0,0l0,0c0.18-0.46,0.37-1.01,0.55-1.47l0.09-0.18v-0.09v-0.09l0.09-0.18
			c0.18-0.55,0.46-1.11,0.64-1.57v-0.09v-0.09c0.28-0.64,0.46-1.2,0.74-1.66v-0.09v-0.09c0.28-0.64,0.55-1.29,0.92-1.93v-0.09v-0.09
			c0.28-0.55,0.55-1.11,0.83-1.66l0.09-0.09l0.09-0.09c0.09-0.09,0.09-0.28,0.18-0.37l0.09-0.09l0.09-0.09
			c0.28-0.55,0.55-1.01,0.83-1.57v-0.09v-0.09c0.64-1.2,1.2-2.12,1.75-3.04c0.55-0.83,1.01-1.66,1.57-2.49
			c0.09-0.09,0.09-0.18,0.18-0.28l0,0l0.09-0.09c0.55-0.74,1.01-1.47,1.47-2.03v-0.09v-0.09c0.09-0.18,0.18-0.28,0.37-0.46v-0.09
			v-0.09c0.64-0.92,1.29-1.75,1.84-2.4l0.46-0.64c0.09-0.09,0.18-0.28,0.28-0.37c7.83-9.4,17.23-11.33,23.86-11.33
			c3.69,0,7.55,0.64,11.06,1.84c10.59,3.69,21.93,13.64,21.93,30.68v65.14c0,8.02,1.75,15.66,5.07,22.76
			c1.38,2.95,3.13,5.8,5.07,8.57c6.17,8.38,14.74,14.74,24.88,18.33C118.33,184.3,111.42,185.5,104.33,185.86z M185.04,113.17
			c-0.09,0.74-0.18,1.29-0.28,1.84v0.09v0.09c-0.28,1.29-0.46,2.4-0.64,3.41c-0.28,1.11-0.55,2.3-0.83,3.41
			c-0.64,2.3-1.29,4.51-2.03,6.54c-0.83,2.21-1.66,4.33-2.58,6.36c-0.83,1.93-1.84,3.96-2.95,5.99c-1.01,1.93-2.03,3.59-3.04,5.16
			l-0.28,0.37v0.09c-0.18,0.37-0.46,0.74-0.64,1.01l-0.18,0.28c-1.11,1.57-2.3,3.22-3.69,4.97c-0.09,0.09-0.18,0.28-0.37,0.37
			c-0.09,0.18-0.28,0.37-0.37,0.46c-7.83,9.4-17.23,11.33-23.77,11.33c-3.69,0-7.46-0.64-11.06-1.84
			c-5.9-2.03-10.96-5.53-14.74-10.13c0.09-0.18,0.28-0.37,0.37-0.55c0.09-0.18,0.28-0.37,0.46-0.74c1.11-1.75,2.21-3.59,3.32-5.62
			c1.29-2.4,2.4-4.7,3.41-6.91c1.01-2.3,1.93-4.7,2.86-7.19c0.83-2.3,1.57-4.79,2.3-7.46c0.28-1.2,0.64-2.49,0.92-3.78
			c0.28-1.11,0.46-2.3,0.74-3.78c0.18-0.83,0.28-1.66,0.46-2.49c0.18-1.47,0.37-2.86,0.55-4.33c0-0.09,0-0.18,0-0.28h52.51
			C185.31,111.24,185.13,112.16,185.04,113.17z"/>
	</g>
</g>
</svg>
