<?xml version="1.0" encoding="utf-8"?>
<!-- Generator: Adobe Illustrator 26.3.1, SVG Export Plug-In . SVG Version: 6.00 Build 0)  -->
<svg version="1.1" id="Layer_1" xmlns="http://www.w3.org/2000/svg" xmlns:xlink="http://www.w3.org/1999/xlink" x="0px" y="0px"
	 viewBox="0 0 64 64" style="enable-background:new 0 0 64 64;" xml:space="preserve">
<style type="text/css">
	.st0{fill:#00ABFF;}
</style>
<g>
	<path class="st0" d="M63.5,31.72v30.52c0,0.7-0.56,1.26-1.26,1.26h0c-0.7,0-1.26-0.56-1.26-1.26V47.31c0-0.51-0.53-0.84-0.98-0.62
		l0,0"/>
	<g>
		<path class="st0" d="M32,0.5C14.62,0.5,0.5,14.62,0.5,32S14.62,63.5,32,63.5S63.5,49.38,63.5,32S49.41,0.5,32,0.5z M30.72,4.85
			c0.41-0.03,0.85-0.03,1.34-0.03c0.5,0,0.9,0,1.34,0.03h0.06h0.06l0,0c0.47,0.03,0.9,0.06,1.34,0.09c0.44,0.03,0.88,0.09,1.28,0.15
			c0.29,0.06,0.55,0.09,0.82,0.15h0.03h0.03c0.15,0.03,0.32,0.06,0.5,0.09c0.23,0.06,0.5,0.12,0.79,0.18l0.26,0.06l0.26,0.06
			l0.09,0.03c0.09,0.03,0.18,0.06,0.26,0.06h0.03h0.03c0.15,0.03,0.29,0.09,0.47,0.12c0.47,0.15,0.9,0.29,1.37,0.44
			c0.12,0.06,0.26,0.09,0.41,0.15c0.99,0.38,1.95,0.79,2.86,1.25c0.17,0.09,0.38,0.18,0.55,0.29c0.53,0.29,1.08,0.58,1.57,0.93l0,0
			l0,0c0.18,0.09,0.32,0.2,0.47,0.29c0.7,0.47,1.37,0.96,2.07,1.52c0.15,0.12,0.29,0.23,0.41,0.35s0.23,0.2,0.35,0.32l0.03,0.03l0,0
			c0.15,0.12,0.29,0.26,0.41,0.38c0.67,0.61,1.34,1.28,1.95,1.95c0.12,0.15,0.26,0.29,0.38,0.44l0.03,0.03l0.03,0.03
			c0.09,0.12,0.2,0.23,0.29,0.35c0.12,0.15,0.23,0.26,0.35,0.41c0.76,0.93,1.43,1.92,2.04,2.89c0.12,0.2,0.23,0.38,0.35,0.58v0.03
			v0.03c0.09,0.15,0.17,0.32,0.29,0.52l0.03,0.06l0.29,0.55c0.09,0.2,0.18,0.38,0.26,0.52v0.03v0.03c0.06,0.15,0.12,0.26,0.2,0.41
			v0.03l0,0c0.55,1.2,1.02,2.45,1.37,3.67c0.06,0.15,0.09,0.32,0.12,0.47l0,0l0,0c0.09,0.26,0.15,0.53,0.2,0.79v0.03v0.03
			c0.03,0.15,0.06,0.26,0.09,0.41c0.15,0.58,0.23,1.2,0.35,1.81c0.03,0.29,0.09,0.55,0.12,0.85h-23.8v-7c0-2.54-0.55-4.96-1.6-7.2
			c-0.44-0.93-0.99-1.84-1.6-2.71c-1.95-2.65-4.67-4.67-7.88-5.83C26.25,5.34,28.44,4.96,30.72,4.85z M33.37,59.18
			c-0.41,0.03-0.85,0.03-1.34,0.03c-0.47,0-0.9,0-1.34-0.03h-0.06h-0.06l0,0c-0.47-0.03-0.9-0.06-1.34-0.09
			c-0.44-0.03-0.88-0.09-1.28-0.18c-0.29-0.06-0.55-0.09-0.79-0.15H27.1h-0.06c-0.15-0.03-0.32-0.06-0.5-0.09
			c-0.61-0.12-1.14-0.26-1.63-0.38h-0.03h-0.03c-0.15-0.03-0.29-0.09-0.44-0.12h-0.03h-0.03c-0.32-0.09-0.67-0.2-1.05-0.32
			c-0.2-0.06-0.41-0.15-0.64-0.23c-0.61-0.23-1.22-0.47-1.84-0.76c-0.44-0.2-0.82-0.38-1.2-0.58c-0.18-0.09-0.35-0.18-0.53-0.29
			l-0.03-0.03h-0.03c-0.2-0.09-0.38-0.2-0.55-0.32c-0.35-0.2-0.64-0.38-0.9-0.53c-1.05-0.67-2.07-1.4-3-2.19
			c-0.29-0.26-0.58-0.5-0.85-0.76l0,0l0,0c-0.32-0.29-0.64-0.58-0.93-0.88l-0.03-0.03l-0.03-0.03c-0.09-0.09-0.18-0.17-0.23-0.23
			v-0.03l-0.17-0.2c-0.15-0.15-0.29-0.29-0.44-0.47l0,0l0,0c-0.15-0.18-0.29-0.32-0.41-0.47l0,0l0,0c-0.15-0.17-0.29-0.32-0.44-0.5
			c-0.15-0.18-0.26-0.32-0.41-0.5l0,0l0,0c-0.15-0.17-0.26-0.35-0.38-0.5l0,0l0,0c-0.12-0.18-0.26-0.35-0.38-0.53v-0.03v-0.03
			C9.8,47.66,9.72,47.52,9.6,47.4l-0.03-0.03c-0.09-0.12-0.17-0.26-0.26-0.38l-0.32-0.5c-0.32-0.52-0.64-1.05-0.93-1.57
			c-0.09-0.18-0.2-0.35-0.29-0.55c-0.38-0.76-0.73-1.55-1.05-2.3c-0.12-0.32-0.26-0.67-0.38-0.99c-0.18-0.53-0.35-1.05-0.5-1.6
			v-0.03v-0.03c-0.06-0.18-0.09-0.35-0.15-0.53v-0.03v-0.03c-0.03-0.12-0.09-0.26-0.09-0.38v-0.06v-0.06
			c-0.03-0.15-0.06-0.26-0.09-0.41c-0.15-0.58-0.23-1.2-0.35-1.81c-0.06-0.41-0.12-0.85-0.18-1.31c-0.03-0.41-0.09-0.85-0.09-1.31
			l0,0V33.4v-0.06C4.88,32.93,4.88,32.5,4.88,32c0-0.35,0-0.7,0.03-1.02l0,0v-0.12c0-0.06,0-0.15,0-0.2V30.6v-0.06l0,0
			c0-0.23,0.03-0.44,0.06-0.67v-0.03v-0.03c0-0.17,0.03-0.35,0.03-0.53V29.2l0,0l0,0v-0.09c0.03-0.44,0.12-0.9,0.18-1.25
			c0.03-0.2,0.06-0.41,0.12-0.61l0,0l0,0c0.09-0.53,0.18-0.93,0.26-1.34c0.23-1.05,0.55-2.13,0.96-3.21l0,0l0,0
			c0.06-0.15,0.12-0.32,0.18-0.47l0.03-0.06v-0.03v-0.03l0.03-0.06c0.06-0.17,0.15-0.35,0.2-0.5v-0.03V21.5
			c0.09-0.2,0.15-0.38,0.23-0.52v-0.03v-0.03c0.09-0.2,0.18-0.41,0.29-0.61v-0.03v-0.03c0.09-0.17,0.18-0.35,0.26-0.52l0.03-0.03
			l0.03-0.03c0.03-0.03,0.03-0.09,0.06-0.12l0.03-0.03l0.03-0.03c0.09-0.18,0.18-0.32,0.26-0.5v-0.03v-0.03
			c0.2-0.38,0.38-0.67,0.55-0.96c0.18-0.26,0.32-0.53,0.5-0.79c0.03-0.03,0.03-0.06,0.06-0.09l0,0l0.03-0.03
			c0.17-0.23,0.32-0.47,0.47-0.64V16.4v-0.03c0.03-0.06,0.06-0.09,0.12-0.15v-0.03v-0.03c0.2-0.29,0.41-0.55,0.58-0.76l0.15-0.2
			c0.03-0.03,0.06-0.09,0.09-0.12c2.48-2.98,5.45-3.59,7.55-3.59c1.17,0,2.39,0.2,3.5,0.58c3.35,1.17,6.94,4.32,6.94,9.71v20.62
			c0,2.54,0.55,4.96,1.6,7.2c0.44,0.93,0.99,1.84,1.6,2.71c1.95,2.65,4.67,4.67,7.88,5.8C37.8,58.69,35.62,59.07,33.37,59.18z
			 M58.92,36.17c-0.03,0.23-0.06,0.41-0.09,0.58v0.03v0.03c-0.09,0.41-0.15,0.76-0.2,1.08c-0.09,0.35-0.17,0.73-0.26,1.08
			c-0.2,0.73-0.41,1.43-0.64,2.07c-0.26,0.7-0.52,1.37-0.82,2.01c-0.26,0.61-0.58,1.25-0.93,1.9c-0.32,0.61-0.64,1.14-0.96,1.63
			l-0.09,0.12v0.03c-0.06,0.12-0.15,0.23-0.2,0.32l-0.06,0.09c-0.35,0.5-0.73,1.02-1.17,1.58c-0.03,0.03-0.06,0.09-0.12,0.12
			c-0.03,0.06-0.09,0.12-0.12,0.15c-2.48,2.97-5.45,3.59-7.53,3.59c-1.17,0-2.36-0.2-3.5-0.58c-1.87-0.64-3.47-1.75-4.67-3.21
			c0.03-0.06,0.09-0.12,0.12-0.17c0.03-0.06,0.09-0.12,0.15-0.23c0.35-0.55,0.7-1.14,1.05-1.78c0.41-0.76,0.76-1.49,1.08-2.19
			c0.32-0.73,0.61-1.49,0.9-2.28c0.26-0.73,0.5-1.52,0.73-2.36c0.09-0.38,0.2-0.79,0.29-1.2c0.09-0.35,0.15-0.73,0.23-1.2
			c0.06-0.26,0.09-0.53,0.15-0.79c0.06-0.47,0.12-0.9,0.18-1.37c0-0.03,0-0.06,0-0.09h16.62C59.01,35.56,58.95,35.85,58.92,36.17z"
			/>
	</g>
</g>
</svg>
